<svg xmlns="http://www.w3.org/2000/svg" width="200" height="56" viewBox="0 0 200 56" role="img" aria-labelledby="title">
<title id="title">DigitalOcean: Create a Droplet</title>
<rect x="0.5" y="0.5" width="199" height="55" rx="8" fill="#171b25" stroke="#394150"/>
<svg stroke="currentColor" fill="currentColor" stroke-width="0" viewBox="0 0 24 24" x="14" y="14" width="28" height="28" color="#ffffff"><path d="M12.04 0C5.408-.02.005 5.37.005 11.992h4.638c0-4.923 4.882-8.731 10.064-6.855a6.95 6.95 0 014.147 4.148c1.889 5.177-1.924 10.055-6.84 10.064v-4.61H7.391v4.623h4.61V24c7.86 0 13.967-7.588 11.397-15.83-1.115-3.59-3.985-6.446-7.575-7.575A12.8 12.8 0 0012.039 0zM7.39 19.362H3.828v3.564H7.39zm-3.563 0v-2.978H.85v2.978z"></path></svg>
<g font-family="Arial, Helvetica, sans-serif"><text x="54" y="24" fill="#ffffff" font-size="14" font-weight="600">DigitalOcean</text><text x="54" y="41" fill="#b8c2d2" font-size="11">Create a Droplet</text></g>
</svg>
